<svg width="26" height="17" fill="none" xmlns="http://www.w3.org/2000/svg"><path d="M1 0a1 1 0 100 2V0zm4.286 2.923l-.951.31.95-.31zM7.829 13.82l.975-.22-.975.22zm15.622 0l.975.22-.975-.22zm1.477-6.563l-.975-.22.976.22zM21 8a1 1 0 100-2v2zm-3-2a1 1 0 100 2V6zM5.575 4.812h16.679v-2H5.574v2zm18.378 2.226L22.475 13.6l1.951.44 1.478-6.563-1.951-.44zM20.776 15H10.504v2h10.272v-2zM8.804 13.6L6.55 3.593l-1.95.44L6.852 14.04l1.951-.44zM6.526 3.503l-.29-.89-1.901.62.289.889 1.902-.619zM2.68 0H1v2h1.681V0zm3.555 2.614C5.733 1.066 4.31 0 2.681 0v2c.736 0 1.41.483 1.654 1.232l1.901-.618zM10.504 15c-.795 0-1.511-.564-1.7-1.4l-1.95.44C7.24 15.757 8.741 17 10.503 17v-2zm11.97-1.4c-.187.836-.903 1.4-1.698 1.4v2c1.761 0 3.263-1.243 3.65-2.96l-1.951-.44zm-.22-8.787c1.093 0 1.962 1.057 1.699 2.225l1.951.44c.531-2.358-1.213-4.665-3.65-4.665v2zM21 6h-3v2h3V6z" fill="#000"/></svg>