<svg width="26" height="22" fill="none" xmlns="http://www.w3.org/2000/svg"><path d="M11.249 20.271l.708-.705-.708.705zm-8.4-8.438l-.708.705.709-.705zm11.902 8.438l.71.706-.71-.706zM11.782 2.86l.709-.706-.709.706zm11.368 8.974l-.709-.706.71.706zM14.218 2.86l.709.705-.709-.705zM13 4.082l-.709.706a1 1 0 001.418 0L13 4.082zm-1.043 15.484L3.56 11.127l-1.42 1.411 8.399 8.439 1.417-1.411zm2.086 0a1.47 1.47 0 01-2.086 0l-1.417 1.41a3.469 3.469 0 004.92 0l-1.417-1.41zM3.559 3.564a5.295 5.295 0 017.514 0l1.418-1.41a7.295 7.295 0 00-10.35 0l1.418 1.41zM2.14 2.154a7.367 7.367 0 000 10.384l1.418-1.41a5.367 5.367 0 010-7.564L2.14 2.154zm20.3 8.973l-8.398 8.439 1.417 1.41 8.399-8.438-1.418-1.41zm0-7.563a5.367 5.367 0 010 7.563l1.418 1.411a7.367 7.367 0 000-10.385L22.44 3.564zm-7.514 0a5.295 5.295 0 017.514 0l1.418-1.41a7.295 7.295 0 00-10.35 0l1.418 1.41zm-1.218 1.224l1.218-1.224-1.418-1.41-1.218 1.223 1.418 1.41zm-2.636-1.224l1.218 1.224 1.418-1.411-1.218-1.224-1.418 1.411z" fill="#000"/></svg>