<svg width="26" height="25" fill="none" xmlns="http://www.w3.org/2000/svg"><path d="M7.862 4.053l-.68-.733.68.733zm3.751-2.842l.297.955-.297-.955zm6.525 2.842l-.68.734.68-.734zm-3.751-2.842l-.297.955.297-.955zM3.62 23.46l-.465.886.465-.886zm-2.098-2.159l-.896.444.896-.444zm22.954 0l.896.444-.896-.444zm-2.098 2.16l.465.885-.465-.886zm2.47-12.08l.97-.241-.97.242zm-2.391-3.326l.68-.734-.68.734zm1.74 1.821l.84-.542-.84.542zM1.15 11.383l-.97-.242.97.242zm2.391-3.327l-.68-.734.68.734zm-1.74 1.821l-.84-.542.84.542zm12.974 5.226l-.258.966.258-.966zm2.122 2.12l.966-.258-.966.259zm-5.675-2.12l-.258-.966.258.966zm-2.12 2.12l-.967-.258.966.259zM24 13.934v2.16h2v-2.16h-2zm-22 2.16v-2.16H0v2.16h2zM4.222 8.79l4.32-4.002-1.36-1.467-4.32 4.002 1.36 1.467zm13.236-4.002l4.32 4.002 1.36-1.467-4.32-4.002-1.36 1.467zm-8.916 0c.92-.852 1.567-1.451 2.112-1.882.535-.423.908-.631 1.256-.74l-.594-1.91c-.678.212-1.273.584-1.903 1.081-.62.49-1.334 1.153-2.23 1.984l1.359 1.467zM18.817 3.32c-.896-.83-1.61-1.493-2.23-1.984-.63-.497-1.225-.87-1.903-1.08l-.594 1.91c.348.108.72.316 1.256.74.545.43 1.192 1.03 2.112 1.881l1.36-1.467zM11.91 2.166a3.668 3.668 0 012.18 0l.594-1.91a5.669 5.669 0 00-3.368 0l.594 1.91zM8.68 23c-1.361 0-2.32 0-3.069-.064-.736-.062-1.18-.178-1.526-.36l-.929 1.771c.68.357 1.423.51 2.288.582.852.072 1.909.071 3.236.071v-2zM0 16.094c0 1.368 0 2.452.069 3.325.07.883.216 1.636.558 2.327l1.792-.888c-.181-.366-.296-.833-.357-1.598C2.001 18.485 2 17.494 2 16.094H0zm4.085 6.482a3.873 3.873 0 01-1.666-1.718l-1.792.888a5.873 5.873 0 002.53 2.601l.928-1.771zM24 16.094c0 1.4 0 2.391-.062 3.166-.06.765-.176 1.232-.357 1.598l1.792.888c.342-.69.488-1.444.558-2.327.07-.873.069-1.957.069-3.325h-2zM17.32 25c1.327 0 2.384 0 3.236-.07.865-.074 1.607-.226 2.288-.583l-.93-1.771c-.346.182-.789.298-1.525.36C19.64 23 18.68 23 17.32 23v2zm6.26-4.142a3.873 3.873 0 01-1.665 1.718l.929 1.771a5.873 5.873 0 002.53-2.601l-1.793-.888zM26 13.932c0-1.246.007-2.04-.18-2.791l-1.941.484c.114.458.121.96.121 2.307h2zM21.778 8.79c.973.902 1.328 1.24 1.58 1.63l1.68-1.084c-.42-.65-1.002-1.18-1.9-2.013l-1.36 1.467zm4.041 2.352a6.013 6.013 0 00-.781-1.806l-1.68 1.084c.237.368.413.776.52 1.206l1.941-.484zM2 13.932c0-1.346.007-1.85.121-2.307l-1.94-.484C-.007 11.893 0 12.686 0 13.932h2zm.863-6.61c-.9.833-1.48 1.362-1.9 2.013l1.68 1.084c.251-.39.606-.728 1.579-1.63l-1.36-1.467zm-.742 4.303c.107-.43.284-.838.522-1.206L.963 9.335A6.014 6.014 0 00.18 11.14l1.94.484zM16 19v4.68h2V19h-2zm-6 4.68V19H8v4.68h2zM13 16c.994 0 1.295.009 1.518.069l.517-1.932C14.495 13.992 13.865 14 13 14v2zm5 3c0-.865.009-1.494-.136-2.035l-1.932.518c.06.222.068.523.068 1.517h2zm-3.482-2.931a2 2 0 011.414 1.414l1.932-.518a4 4 0 00-2.829-2.828l-.517 1.931zM13 14c-.866 0-1.495-.008-2.035.137l.517 1.931C11.705 16.01 12.006 16 13 16v-2zm-3 5c0-.994.009-1.295.068-1.517l-1.932-.518C7.991 17.505 8 18.135 8 19h2zm.965-4.863a4 4 0 00-2.829 2.828l1.932.518a2 2 0 011.414-1.415l-.517-1.931zM8 23.68a.68.68 0 01.681-.68l-.002 2c.73 0 1.321-.59 1.321-1.32H8zm8 0c0 .73.592 1.32 1.321 1.32l-.002-2a.68.68 0 01.681.68h-2z" fill="#000"/></svg>