<svg width="24" height="24" fill="none" xmlns="http://www.w3.org/2000/svg"><path d="M5.17 4.047l-.465-.886.464.886zm0 15.906l.464-.885-.465.885zm10.66 1.573l.465.886-.464-.886zm-7.66 0l-.465.886.464-.886zM12 23v1-1zm6.83-3.047l-.463-.885.464.885zm0-15.906l.465-.886-.464.886zm-3-1.573l-.463.885.464-.885zm-7.66 0l-.465-.886.464.886zm7.197.885l3 1.573.928-1.771-3-1.573-.929 1.771zM22 10.798v2.404h2v-2.404h-2zm-3.634 8.27l-3 1.573.93 1.77 3-1.572-.93-1.771zM8.634 20.64l-3-1.573-.93 1.771 3 1.573.93-1.771zM2 13.202v-2.404H0v2.404h2zm3.634-8.27l3-1.573-.93-1.77-3 1.572.93 1.771zM2 10.798c0-1.134.001-1.907.065-2.513.06-.582.172-.925.346-1.207L.71 6.027c-.387.625-.555 1.292-.635 2.05C0 8.81 0 9.706 0 10.797h2zM4.705 3.16c-.999.524-1.812.949-2.441 1.362-.646.425-1.17.88-1.554 1.504l1.701 1.05c.176-.284.44-.547.95-.882.528-.347 1.239-.72 2.273-1.263l-.93-1.771zm.929 15.907c-1.034-.542-1.745-.916-2.272-1.263-.51-.335-.775-.599-.95-.883L.71 17.973c.384.623.908 1.08 1.554 1.504.629.413 1.442.838 2.44 1.362l.93-1.771zM0 13.202c0 1.092-.001 1.988.075 2.721.08.758.248 1.425.635 2.05l1.701-1.05c-.174-.283-.286-.626-.346-1.208C2 15.11 2 14.335 2 13.202H0zm15.367 7.439c-.953.5-1.61.842-2.153 1.066-.524.216-.88.293-1.214.293v2c.685 0 1.309-.169 1.976-.444.649-.267 1.398-.661 2.32-1.144l-.93-1.771zm-7.662 1.77c.92.484 1.67.878 2.319 1.145.667.275 1.29.444 1.976.444v-2c-.335 0-.69-.077-1.214-.293-.544-.224-1.2-.567-2.152-1.066l-.93 1.77zM22 13.203c0 1.134-.001 1.907-.065 2.513-.06.582-.172.925-.346 1.207l1.701 1.051c.387-.625.555-1.292.634-2.05.077-.733.076-1.629.076-2.72h-2zm-2.705 7.637c.999-.524 1.812-.949 2.441-1.362.646-.425 1.17-.88 1.554-1.504l-1.701-1.05c-.176.284-.441.547-.95.882-.528.347-1.239.72-2.273 1.263l.93 1.771zm-.929-15.907c1.034.542 1.745.916 2.272 1.263.51.335.775.598.95.883l1.702-1.051c-.384-.623-.907-1.08-1.554-1.504-.629-.413-1.442-.838-2.44-1.362l-.93 1.771zM24 10.798c0-1.092.001-1.988-.076-2.721-.079-.758-.247-1.425-.634-2.05l-1.701 1.05c.174.283.286.626.346 1.208.064.606.065 1.38.065 2.513h2zm-7.705-9.21c-.92-.483-1.67-.877-2.319-1.144C13.31.169 12.686 0 12 0v2c.335 0 .69.077 1.214.293.544.224 1.2.567 2.152 1.066l.93-1.77zM8.634 3.36c.952-.5 1.608-.842 2.152-1.066C11.31 2.077 11.666 2 12 2V0c-.685 0-1.309.169-1.976.444-.649.267-1.398.661-2.32 1.144l.93 1.771zM15 12c0 1.534-1.306 2.845-3 2.845v2c2.724 0 5-2.132 5-4.845h-2zm-3 2.845c-1.694 0-3-1.31-3-2.845H7c0 2.713 2.276 4.845 5 4.845v-2zM9 12c0-1.534 1.306-2.845 3-2.845v-2c-2.724 0-5 2.132-5 4.845h2zm3-2.845c1.694 0 3 1.31 3 2.845h2c0-2.713-2.276-4.845-5-4.845v2z" fill="#000"/></svg>