<svg width="26" height="17" viewBox="0 0 26 17" fill="none" xmlns="http://www.w3.org/2000/svg">
<path d="M1 0C0.447715 0 0 0.447715 0 1C0 1.55228 0.447715 2 1 2V0ZM5.28555 2.92311L4.3346 3.23248L4.3346 3.23248L5.28555 2.92311ZM7.82881 13.8199L8.80438 13.6002L7.82881 13.8199ZM23.4505 13.8199L24.426 14.0396L24.426 14.0396L23.4505 13.8199ZM24.9285 7.25742L23.953 7.0377L23.953 7.0377L24.9285 7.25742ZM21 8C21.5523 8 22 7.55228 22 7C22 6.44772 21.5523 6 21 6V8ZM18 6C17.4477 6 17 6.44772 17 7C17 7.55228 17.4477 8 18 8V6ZM5.57489 4.8125H22.2539V2.8125H5.57489V4.8125ZM23.953 7.0377L22.4749 13.6002L24.426 14.0396L25.9041 7.47714L23.953 7.0377ZM20.7758 15H10.5035V17H20.7758V15ZM8.80438 13.6002L6.55045 3.59278L4.59933 4.03222L6.85325 14.0396L8.80438 13.6002ZM6.52583 3.50313L6.23649 2.61374L4.3346 3.23248L4.62395 4.12187L6.52583 3.50313ZM2.68148 0H1V2H2.68148V0ZM6.23649 2.61374C5.73297 1.06599 4.30912 0 2.68148 0V2C3.41683 2 4.09088 2.48331 4.3346 3.23248L6.23649 2.61374ZM10.5035 15C9.70857 15 8.99253 14.4356 8.80438 13.6002L6.85325 14.0396C7.23992 15.7565 8.74194 17 10.5035 17V15ZM22.4749 13.6002C22.2868 14.4356 21.5707 15 20.7758 15V17C22.5374 17 24.0394 15.7565 24.426 14.0396L22.4749 13.6002ZM22.2539 4.8125C23.3475 4.8125 24.2159 5.87033 23.953 7.0377L25.9041 7.47714C26.435 5.11978 24.6907 2.8125 22.2539 2.8125V4.8125ZM21 6H18V8H21V6Z" fill="black"/>
</svg>
