<svg width="26" height="22" viewBox="0 0 26 22" fill="none" xmlns="http://www.w3.org/2000/svg">
<path d="M11.2486 20.2711L11.9574 19.5657L11.2486 20.2711ZM2.8499 11.8328L2.14113 12.5383L2.14113 12.5383L2.8499 11.8328ZM14.7514 20.2711L15.4602 20.9766L15.4602 20.9766L14.7514 20.2711ZM11.782 2.85862L12.4908 2.15318L12.4908 2.15318L11.782 2.85862ZM23.1501 11.8328L22.4413 11.1274L22.4413 11.1274L23.1501 11.8328ZM14.218 2.85862L14.9268 3.56406L14.9268 3.56406L14.218 2.85862ZM13 4.08237L12.2912 4.78781C12.4789 4.97637 12.734 5.08237 13 5.08237C13.266 5.08237 13.5211 4.97637 13.7088 4.78781L13 4.08237ZM11.9574 19.5657L3.55866 11.1274L2.14113 12.5383L10.5398 20.9766L11.9574 19.5657ZM14.0426 19.5657C13.4663 20.1448 12.5337 20.1448 11.9574 19.5657L10.5398 20.9766C11.898 22.3411 14.102 22.3411 15.4602 20.9766L14.0426 19.5657ZM3.55866 3.56406C5.63429 1.47865 8.99759 1.47865 11.0732 3.56406L12.4908 2.15318C9.63333 -0.717725 4.99856 -0.717726 2.14113 2.15318L3.55866 3.56406ZM2.14113 2.15318C-0.71371 5.02147 -0.713709 9.66996 2.14113 12.5383L3.55866 11.1274C1.48045 9.03936 1.48045 5.65208 3.55866 3.56406L2.14113 2.15318ZM22.4413 11.1274L14.0426 19.5657L15.4602 20.9766L23.8589 12.5383L22.4413 11.1274ZM22.4413 3.56406C24.5196 5.65208 24.5196 9.03936 22.4413 11.1274L23.8589 12.5383C26.7137 9.66996 26.7137 5.02147 23.8589 2.15318L22.4413 3.56406ZM14.9268 3.56406C17.0024 1.47865 20.3657 1.47865 22.4413 3.56406L23.8589 2.15318C21.0014 -0.717725 16.3667 -0.717724 13.5092 2.15318L14.9268 3.56406ZM13.7088 4.78781L14.9268 3.56406L13.5092 2.15318L12.2912 3.37693L13.7088 4.78781ZM11.0732 3.56406L12.2912 4.78781L13.7088 3.37693L12.4908 2.15318L11.0732 3.56406Z" fill="black"/>
</svg>
