<svg width="26" height="25" viewBox="0 0 26 25" fill="none" xmlns="http://www.w3.org/2000/svg">
<path d="M7.86235 4.05347L7.18271 3.31992L7.18271 3.31992L7.86235 4.05347ZM11.6131 1.21077L11.9098 2.16574L11.6131 1.21077ZM18.1376 4.05347L17.458 4.78702L17.458 4.78702L18.1376 4.05347ZM14.3869 1.21077L14.0902 2.16574L14.3869 1.21077ZM3.62085 23.4614L3.15634 24.347L3.15634 24.347L3.62085 23.4614ZM1.52317 21.302L0.62694 21.7456L1.52317 21.302ZM24.4768 21.302L25.3731 21.7456L24.4768 21.302ZM22.3792 23.4614L22.8437 24.347L22.8437 24.347L22.3792 23.4614ZM24.8491 11.3829L25.8194 11.1408L25.8194 11.1408L24.8491 11.3829ZM22.4576 8.05592L23.1373 7.32237L22.4576 8.05592ZM24.1976 9.87695L25.0377 9.33456L25.0377 9.33456L24.1976 9.87695ZM1.15088 11.3829L0.18062 11.1408L0.18062 11.1408L1.15088 11.3829ZM3.54235 8.05592L2.86272 7.32237L3.54235 8.05592ZM1.80239 9.87695L0.962271 9.33456L0.962271 9.33456L1.80239 9.87695ZM14.7765 15.1026L14.5176 16.0685L14.7765 15.1026ZM16.8978 17.2239L17.8637 16.9651L17.8637 16.9651L16.8978 17.2239ZM11.2235 15.1026L10.9647 14.1367L10.9647 14.1367L11.2235 15.1026ZM9.10222 17.2239L8.1363 16.9651L8.1363 16.9651L9.10222 17.2239ZM24 13.9325V16.0939H26V13.9325H24ZM2 16.0939V13.9325H0V16.0939H2ZM4.22198 8.78948L8.54198 4.78702L7.18271 3.31992L2.86272 7.32237L4.22198 8.78948ZM17.458 4.78702L21.778 8.78948L23.1373 7.32237L18.8173 3.31991L17.458 4.78702ZM8.54198 4.78702C9.46147 3.93512 10.1094 3.3358 10.6539 2.90524C11.1891 2.48202 11.5617 2.27388 11.9098 2.16574L11.3163 0.255803C10.6376 0.466701 10.0428 0.838691 9.41334 1.33646C8.79316 1.82687 8.07914 2.48938 7.18271 3.31992L8.54198 4.78702ZM18.8173 3.31991C17.9209 2.48938 17.2068 1.82687 16.5867 1.33646C15.9572 0.838691 15.3624 0.466701 14.6837 0.255803L14.0902 2.16574C14.4383 2.27388 14.8109 2.48202 15.3461 2.90524C15.8906 3.3358 16.5385 3.93512 17.458 4.78702L18.8173 3.31991ZM11.9098 2.16574C12.621 1.94475 13.379 1.94475 14.0902 2.16574L14.6837 0.255803C13.5859 -0.0852678 12.4141 -0.0852678 11.3163 0.255803L11.9098 2.16574ZM8.68 23C7.31889 23 6.35996 22.9992 5.61118 22.9362C4.87496 22.8743 4.43174 22.7576 4.08535 22.5759L3.15634 24.347C3.83672 24.7039 4.57896 24.8564 5.44356 24.9292C6.29559 25.0008 7.35286 25 8.68 25V23ZM0 16.0939C0 17.4616 -0.000734151 18.5457 0.0685308 19.4185C0.138657 20.302 0.285236 21.0552 0.62694 21.7456L2.4194 20.8584C2.23793 20.4918 2.12293 20.0246 2.06226 19.2602C2.00073 18.485 2 17.4936 2 16.0939H0ZM4.08535 22.5759C3.37255 22.202 2.78767 21.6025 2.4194 20.8584L0.62694 21.7456C1.17905 22.8611 2.06279 23.7734 3.15634 24.347L4.08535 22.5759ZM24 16.0939C24 17.4936 23.9993 18.485 23.9377 19.2602C23.8771 20.0246 23.7621 20.4918 23.5806 20.8584L25.3731 21.7456C25.7148 21.0552 25.8613 20.302 25.9315 19.4185C26.0007 18.5457 26 17.4616 26 16.0939H24ZM17.32 25C18.6471 25 19.7044 25.0008 20.5564 24.9292C21.421 24.8564 22.1633 24.7039 22.8437 24.347L21.9146 22.5759C21.5683 22.7576 21.125 22.8743 20.3888 22.9362C19.64 22.9992 18.6811 23 17.32 23V25ZM23.5806 20.8584C23.2123 21.6025 22.6275 22.202 21.9146 22.5759L22.8437 24.347C23.9372 23.7734 24.821 22.8611 25.3731 21.7456L23.5806 20.8584ZM26 13.9325C26 12.686 26.0069 11.8927 25.8194 11.1408L23.8789 11.625C23.993 12.0827 24 12.5859 24 13.9325H26ZM21.778 8.78948C22.7512 9.69113 23.1058 10.0295 23.3575 10.4194L25.0377 9.33456C24.6179 8.68432 24.0364 8.15539 23.1373 7.32237L21.778 8.78948ZM25.8194 11.1408C25.6593 10.499 25.3953 9.88838 25.0377 9.33456L23.3575 10.4194C23.595 10.7873 23.7715 11.1948 23.8789 11.625L25.8194 11.1408ZM2 13.9325C2 12.5859 2.00695 12.0827 2.12114 11.625L0.18062 11.1408C-0.00694997 11.8927 0 12.686 0 13.9325H2ZM2.86272 7.32237C1.96361 8.15539 1.38208 8.68432 0.962271 9.33456L2.64252 10.4194C2.89418 10.0295 3.2488 9.69113 4.22198 8.78948L2.86272 7.32237ZM2.12114 11.625C2.22846 11.1948 2.40496 10.7873 2.64252 10.4194L0.962271 9.33456C0.604713 9.88838 0.340743 10.499 0.18062 11.1408L2.12114 11.625ZM16 19.0004V23.6804H18V19.0004H16ZM10 23.6804V19.0004H8V23.6804H10ZM13 16.0004C13.9944 16.0004 14.2954 16.009 14.5176 16.0685L15.0353 14.1367C14.4946 13.9918 13.8656 14.0004 13 14.0004V16.0004ZM18 19.0004C18 18.1348 18.0086 17.5058 17.8637 16.9651L15.9319 17.4827C15.9914 17.705 16 18.006 16 19.0004H18ZM14.5176 16.0685C15.2078 16.2535 15.7469 16.7926 15.9319 17.4827L17.8637 16.9651C17.4938 15.5847 16.4156 14.5066 15.0353 14.1367L14.5176 16.0685ZM13 14.0004C12.1344 14.0004 11.5054 13.9918 10.9647 14.1367L11.4824 16.0685C11.7046 16.009 12.0056 16.0004 13 16.0004V14.0004ZM10 19.0004C10 18.006 10.0086 17.705 10.0681 17.4827L8.1363 16.9651C7.99141 17.5058 8 18.1348 8 19.0004H10ZM10.9647 14.1367C9.58436 14.5066 8.50617 15.5847 8.1363 16.9651L10.0681 17.4827C10.2531 16.7926 10.7922 16.2535 11.4824 16.0685L10.9647 14.1367ZM8 23.6804C8 23.3043 8.30512 22.9995 8.6812 23L8.6788 25C9.40822 25.0009 10 24.4098 10 23.6804H8ZM16 23.6804C16 24.4098 16.5918 25.0009 17.3212 25L17.3188 23C17.6949 22.9995 18 23.3043 18 23.6804H16Z" fill="black"/>
</svg>
