<svg width="86" height="86" viewBox="0 0 86 86" fill="none" xmlns="http://www.w3.org/2000/svg">
<path d="M76.2384 44.7884C79.9408 44.9876 82.8369 48.1744 82.022 51.7915C80.4333 58.8431 76.9522 65.3766 71.8963 70.6587C65.283 77.5679 56.413 81.8788 46.8943 82.81C37.3756 83.7411 27.8383 81.2308 20.0115 75.7342C12.1846 70.2376 6.5863 62.1184 4.23143 52.8488C1.87656 43.5791 2.92103 33.7724 7.17548 25.2067C11.4299 16.6409 18.6127 9.88303 27.4217 6.15821C36.2307 2.4334 46.0828 1.98818 55.1918 4.90329C62.1558 7.1319 68.333 11.2117 73.0947 16.6501C75.5372 19.4397 74.5132 23.6224 71.3548 25.5645V25.5645C68.1963 27.5066 64.108 26.4372 61.438 23.8646C58.5305 21.0631 55.0007 18.94 51.0993 17.6914C45.048 15.7549 38.503 16.0506 32.651 18.5251C26.7989 20.9996 22.0272 25.489 19.2009 31.1794C16.3746 36.8699 15.6807 43.3847 17.2451 49.5428C18.8095 55.7008 22.5286 61.0946 27.7282 64.7461C32.9277 68.3977 39.2636 70.0653 45.5871 69.4467C51.9106 68.8282 57.8031 65.9643 62.1965 61.3743C65.029 58.4151 67.1174 54.8647 68.3353 51.0153C69.4538 47.4802 72.536 44.5892 76.2384 44.7884V44.7884Z" fill="#272727"/>
<rect x="37" y="56.992" width="16" height="48" rx="8" transform="rotate(-88.1891 37 56.992)" fill="#EF4444"/>
</svg>
