<svg width="24" height="24" viewBox="0 0 24 24" fill="none" xmlns="http://www.w3.org/2000/svg">
<path d="M5.16918 4.04667L4.70483 3.16102L5.16918 4.04667ZM5.16918 19.9533L5.63354 19.0677L5.63354 19.0677L5.16918 19.9533ZM15.8308 21.5263L16.2952 22.4119L16.2952 22.4119L15.8308 21.5263ZM8.16918 21.5263L7.70483 22.4119L7.70483 22.4119L8.16918 21.5263ZM12 23L12 24L12 23ZM18.8308 19.9533L18.3665 19.0677L18.3665 19.0677L18.8308 19.9533ZM18.8308 4.04667L19.2952 3.16102L18.8308 4.04667ZM15.8308 2.47375L15.3665 3.3594L15.8308 2.47375ZM8.16918 2.47375L7.70483 1.5881L8.16918 2.47375ZM15.3665 3.3594L18.3665 4.93232L19.2952 3.16102L16.2952 1.5881L15.3665 3.3594ZM22 10.7976V13.2024H24V10.7976H22ZM18.3665 19.0677L15.3665 20.6406L16.2952 22.4119L19.2952 20.839L18.3665 19.0677ZM8.63354 20.6406L5.63354 19.0677L4.70483 20.839L7.70483 22.4119L8.63354 20.6406ZM2 13.2024V10.7976H0V13.2024H2ZM5.63354 4.93232L8.63354 3.3594L7.70483 1.5881L4.70483 3.16102L5.63354 4.93232ZM2 10.7976C2 9.6643 2.00126 8.89066 2.06462 8.28485C2.12546 7.70323 2.23705 7.35987 2.41123 7.07784L0.709579 6.02694C0.323354 6.65233 0.154741 7.31898 0.0754763 8.07679C-0.00125944 8.81043 0 9.70566 0 10.7976H2ZM4.70483 3.16102C3.70609 3.68467 2.89259 4.10992 2.26377 4.52305C1.61752 4.94762 1.09439 5.40384 0.709579 6.02694L2.41123 7.07784C2.58683 6.7935 2.85195 6.52963 3.36194 6.19458C3.88934 5.84809 4.60002 5.4742 5.63354 4.93232L4.70483 3.16102ZM5.63354 19.0677C4.60002 18.5258 3.88934 18.1519 3.36194 17.8054C2.85195 17.4704 2.58683 17.2065 2.41123 16.9222L0.709579 17.9731C1.09439 18.5962 1.61752 19.0524 2.26377 19.477C2.89259 19.8901 3.70609 20.3153 4.70483 20.839L5.63354 19.0677ZM0 13.2024C0 14.2943 -0.00125944 15.1896 0.0754763 15.9232C0.154741 16.681 0.323354 17.3477 0.709579 17.9731L2.41123 16.9222C2.23705 16.6401 2.12546 16.2968 2.06462 15.7151C2.00126 15.1093 2 14.3357 2 13.2024H0ZM15.3665 20.6406C14.4136 21.1402 13.7577 21.483 13.2141 21.707C12.6897 21.9231 12.3348 22 12 22L12 24C12.6852 24 13.3087 23.8312 13.9762 23.5561C14.6246 23.2889 15.3742 22.8948 16.2952 22.4119L15.3665 20.6406ZM7.70483 22.4119C8.62581 22.8948 9.37542 23.2889 10.0238 23.5561C10.6913 23.8312 11.3148 24 12 24L12 22C11.6652 22 11.3103 21.9231 10.7859 21.707C10.2423 21.483 9.58644 21.1402 8.63354 20.6406L7.70483 22.4119ZM22 13.2024C22 14.3357 21.9987 15.1093 21.9354 15.7151C21.8745 16.2968 21.763 16.6401 21.5888 16.9222L23.2904 17.9731C23.6766 17.3477 23.8453 16.681 23.9245 15.9232C24.0013 15.1896 24 14.2943 24 13.2024H22ZM19.2952 20.839C20.2939 20.3153 21.1074 19.8901 21.7362 19.477C22.3825 19.0524 22.9056 18.5962 23.2904 17.9731L21.5888 16.9222C21.4132 17.2065 21.148 17.4704 20.6381 17.8054C20.1107 18.1519 19.4 18.5258 18.3665 19.0677L19.2952 20.839ZM18.3665 4.93232C19.4 5.4742 20.1107 5.84809 20.6381 6.19458C21.148 6.52963 21.4132 6.7935 21.5888 7.07784L23.2904 6.02694C22.9056 5.40384 22.3825 4.94762 21.7362 4.52305C21.1074 4.10992 20.2939 3.68467 19.2952 3.16102L18.3665 4.93232ZM24 10.7976C24 9.70566 24.0013 8.81043 23.9245 8.07679C23.8453 7.31898 23.6766 6.65233 23.2904 6.02694L21.5888 7.07784C21.763 7.35987 21.8745 7.70323 21.9354 8.28485C21.9987 8.89066 22 9.6643 22 10.7976H24ZM16.2952 1.5881C15.3742 1.10522 14.6246 0.711093 13.9762 0.443882C13.3087 0.168773 12.6852 0 12 0V2C12.3348 2 12.6897 2.07685 13.2141 2.29299C13.7577 2.51703 14.4136 2.85978 15.3665 3.3594L16.2952 1.5881ZM8.63354 3.3594C9.58645 2.85978 10.2423 2.51703 10.7859 2.29299C11.3103 2.07685 11.6652 2 12 2V0C11.3148 0 10.6913 0.168773 10.0238 0.443881C9.37542 0.711092 8.62582 1.10522 7.70483 1.5881L8.63354 3.3594ZM15 12C15 13.5343 13.6945 14.8449 12 14.8449V16.8449C14.7238 16.8449 17 14.7127 17 12H15ZM12 14.8449C10.3055 14.8449 9 13.5343 9 12H7C7 14.7127 9.27621 16.8449 12 16.8449V14.8449ZM9 12C9 10.4657 10.3055 9.15507 12 9.15507V7.15507C9.27621 7.15507 7 9.28732 7 12H9ZM12 9.15507C13.6945 9.15507 15 10.4657 15 12H17C17 9.28732 14.7238 7.15507 12 7.15507V9.15507Z" fill="black"/>
</svg>
